<?xml version="1.0" encoding="utf-8"?>
<svg viewBox="0 0 83.874 110.03" width="83.874" height="110.03" xmlns="http://www.w3.org/2000/svg">
  <defs>
    <linearGradient id="linear-gradient" x1="159.77" y1="39.97" x2="161.24" y2="39.97" gradientUnits="userSpaceOnUse" gradientTransform="matrix(1, 0, 0, 1, 0.000067, 0.000022)">
      <stop offset="1" stop-color="#ea6440"/>
      <stop offset="1" stop-color="#e2613e"/>
      <stop offset="1" stop-color="#cc593a"/>
      <stop offset="1" stop-color="#a94d34"/>
      <stop offset="1" stop-color="#783c2b"/>
      <stop offset="1" stop-color="#3a2720"/>
      <stop offset="1" stop-color="#1d1d1b"/>
    </linearGradient>
  </defs>
  <g>
    <path class="cls-2" d="M 83.47 16.9 C 83.87 16.38 83.98 15.7 83.77 15.09 L 83.54 14.44 C 83.49 14.29 83.42 14.14 83.33 14.01 L 82.59 12.89 L 81.72 11.46 L 80.63 9.7 L 79.57 8.5 L 77.79 6.49 L 76.37 5.05 L 74.84 4.05 L 73.53 3.16 L 71.78 2.27 L 70.69 1.71 L 69.05 1.15 L 66.09 0.34 L 16.61 0 L 14.74 0.44 L 13.2 0.87 L 11.66 1.63 L 9.79 2.82 L 7.92 4.01 L 6.37 5.65 L 4.49 8.05 L 3.49 9.58 L 2.05 12.09 L 1.27 14.17 L 0.77 16.38 L 0.6 16.98 L 0.48 17.34 C 0.37 17.67 0.3 18.01 0.27 18.36 L 0.02 21.31 L 0 24.38 L 0.51 27.24 L 1.15 29.66 L 1.79 31.75 L 2.65 33.84 L 3.95 35.93 L 5.04 37.58 L 33.12 79.53 C 33.47 80.05 34.23 80.08 34.61 79.58 L 44.92 66.23 C 45.25 65.81 45.27 65.23 44.97 64.78 L 17.87 24.06 L 17.33 23.07 L 17.4 22.26 L 17.4 21.83 C 17.4 21.23 17.69 20.66 18.17 20.3 C 18.43 20.11 18.73 19.98 19.04 19.93 L 20.14 19.76 L 62.45 20.06 L 63.89 20.06 C 63.89 20.06 64.85 20.58 64.85 20.58 C 65.08 20.71 65.31 20.84 65.54 20.98 L 66.41 21.54 L 67.78 23.02" style="fill: url(#linear-gradient);"/>
    <path class="cls-1" d="M 0.44 93.7 C 0.05 94.22 -0.06 94.9 0.17 95.52 L 0.4 96.17 C 0.45 96.32 0.53 96.46 0.62 96.6 L 1.37 97.71 L 2.26 99.13 L 3.37 100.88 L 4.44 102.06 L 6.24 104.04 L 7.68 105.46 L 9.22 106.44 L 10.54 107.31 L 12.3 108.18 L 13.4 108.72 L 15.05 109.26 L 18.02 110.03 L 67.52 109.7 L 69.38 109.23 L 70.91 108.78 L 72.44 108 L 74.3 106.78 L 76.16 105.56 L 77.69 103.9 L 79.54 101.47 L 80.52 99.93 L 81.93 97.4 L 82.68 95.31 L 83.15 93.09 L 83.31 92.49 L 83.42 92.13 C 83.52 91.8 83.59 91.46 83.61 91.11 L 83.82 88.18 L 83.8 85.11 L 83.25 82.26 L 82.58 79.85 L 81.91 77.77 L 81.02 75.69 L 79.69 73.61 L 78.58 71.97 L 49.94 30.39 C 49.58 29.87 48.83 29.86 48.45 30.36 L 38.33 43.85 C 38.01 44.28 38 44.86 38.3 45.3 L 65.95 85.65 L 66.51 86.63 L 66.45 87.44 L 66.45 87.87 C 66.45 88.47 66.18 89.04 65.71 89.41 C 65.46 89.61 65.16 89.74 64.84 89.79 L 63.74 89.97 L 21.43 90.25 L 19.99 90.25 C 19.99 90.25 19.02 89.76 19.02 89.76 C 18.78 89.64 18.55 89.51 18.33 89.36 L 17.46 88.81 L 16.07 87.35" style="fill: rgb(61, 90, 128);"/>
  </g>
</svg>