<?xml version="1.0" encoding="UTF-8"?>
<svg id="Layer_1" data-name="Layer 1" xmlns="http://www.w3.org/2000/svg" viewBox="0 0 83.88 110.02">
  <defs>
    <style>
      .cls-1 {
        fill: #293241;
      }

      .cls-2 {
        fill: #ed6c4e;
      }
    </style>
  </defs>
  <path class="cls-2" d="M83.47,16.9c.4-.52,.51-1.2,.3-1.81l-.23-.65c-.05-.15-.12-.3-.21-.43l-.74-1.12-.87-1.43-1.09-1.76-1.06-1.2-1.78-2.01-1.42-1.44-1.53-1-1.31-.89-1.75-.89-1.09-.56-1.64-.56-2.96-.81L16.61,0l-1.87,.44-1.54,.43-1.54,.76-1.87,1.19-1.87,1.19-1.55,1.64-1.88,2.4-1,1.53-1.44,2.51-.78,2.08-.5,2.21-.17,.6-.12,.36c-.11,.33-.18,.67-.21,1.02L.02,21.31l-.02,3.07,.51,2.86,.64,2.42,.64,2.09,.86,2.09,1.3,2.09,1.09,1.65,28.08,41.95c.35,.52,1.11,.55,1.49,.05l10.31-13.35c.33-.42,.35-1,.05-1.45L17.87,24.06l-.54-.99,.07-.81v-.43c0-.6,.29-1.17,.77-1.53,.26-.19,.56-.32,.87-.37l1.1-.17,42.31,.3h1.44s.96,.52,.96,.52c.23,.13,.46,.26,.69,.4l.87,.56,1.37,1.48"/>
  <path class="cls-1" d="M.44,93.7c-.39,.52-.5,1.2-.27,1.82l.23,.65c.05,.15,.13,.29,.22,.43l.75,1.11,.89,1.42,1.11,1.75,1.07,1.18,1.8,1.98,1.44,1.42,1.54,.98,1.32,.87,1.76,.87,1.1,.54,1.65,.54,2.97,.77,49.5-.33,1.86-.47,1.53-.45,1.53-.78,1.86-1.22,1.86-1.22,1.53-1.66,1.85-2.43,.98-1.54,1.41-2.53,.75-2.09,.47-2.22,.16-.6,.11-.36c.1-.33,.17-.67,.19-1.02l.21-2.93-.02-3.07-.55-2.85-.67-2.41-.67-2.08-.89-2.08-1.33-2.08-1.11-1.64L49.94,30.39c-.36-.52-1.11-.53-1.49-.03l-10.12,13.49c-.32,.43-.33,1.01-.03,1.45l27.65,40.35,.56,.98-.06,.81v.43c0,.6-.27,1.17-.74,1.54-.25,.2-.55,.33-.87,.38l-1.1,.18-42.31,.28h-1.44s-.97-.49-.97-.49c-.24-.12-.47-.25-.69-.4l-.87-.55-1.39-1.46"/>
</svg>